<svg width="34" height="31" viewBox="0 0 34 31" fill="none" xmlns="http://www.w3.org/2000/svg">
<path d="M33.3333 4.43694H6.83453L5.8753 0.600006H0V2.63838H4.31655L9.47242 24.4609H13.0695C12.1103 24.9405 11.3909 26.0197 11.3909 27.2187C11.3909 29.0173 12.8297 30.4561 14.6283 30.4561C16.4269 30.4561 17.7458 29.0173 17.7458 27.2187C17.7458 26.0197 17.0264 24.9405 16.0671 24.4609H23.0216C22.0623 24.9405 21.3429 26.0197 21.3429 27.2187C21.3429 29.0173 22.7818 30.4561 24.5803 30.4561C26.3789 30.4561 27.6978 29.0173 27.6978 27.2187C27.6978 26.0197 26.9784 24.9405 26.0192 24.4609H29.976V22.4225H11.0312L10.3118 19.6648H30.2158L33.3333 4.43694ZM14.5084 28.6576C13.6691 28.6576 13.0695 28.058 13.0695 27.2187C13.0695 26.3794 13.6691 25.7799 14.5084 25.7799C15.3477 25.7799 15.9472 26.3794 15.9472 27.2187C15.9472 28.058 15.3477 28.6576 14.5084 28.6576ZM24.4604 28.6576C23.6211 28.6576 23.0216 28.058 23.0216 27.2187C23.0216 26.3794 23.6211 25.7799 24.4604 25.7799C25.2998 25.7799 25.8993 26.3794 25.8993 27.2187C25.8993 28.058 25.1799 28.6576 24.4604 28.6576ZM9.95204 17.6264L7.31415 6.59521H30.9353L28.777 17.6264H9.95204Z" fill="white"/>
</svg>
